<?xml version="1.0" encoding="UTF-8" standalone="no"?>
<!-- Created with Inkscape (http://www.inkscape.org/) -->

<svg
   width="128"
   height="128"
   viewBox="0 0 33.866666 33.866668"
   version="1.1"
   id="svg112"
   inkscape:version="1.2-alpha (0bd5040e, 2022-02-05)"
   sodipodi:docname="cv.svg"
   xmlns:inkscape="http://www.inkscape.org/namespaces/inkscape"
   xmlns:sodipodi="http://sodipodi.sourceforge.net/DTD/sodipodi-0.dtd"
   xmlns="http://www.w3.org/2000/svg"
   xmlns:svg="http://www.w3.org/2000/svg">
  <sodipodi:namedview
     id="namedview114"
     pagecolor="#ffffff"
     bordercolor="#666666"
     borderopacity="1.0"
     inkscape:pageshadow="2"
     inkscape:pageopacity="0.0"
     inkscape:pagecheckerboard="0"
     inkscape:document-units="mm"
     showgrid="true"
     units="px"
     inkscape:snap-global="false"
     inkscape:zoom="5.2249848"
     inkscape:cx="78.469128"
     inkscape:cy="63.827937"
     inkscape:window-width="1390"
     inkscape:window-height="1027"
     inkscape:window-x="-34"
     inkscape:window-y="25"
     inkscape:window-maximized="0"
     inkscape:current-layer="layer1"
     inkscape:blackoutopacity="0.0"
     showguides="false">
    <inkscape:grid
       type="xygrid"
       id="grid160" />
  </sodipodi:namedview>
  <defs
     id="defs109" />
  <g
     inkscape:label="Layer 1"
     inkscape:groupmode="layer"
     id="layer1">
    <path
       style="fill:#262626;stroke:none;stroke-width:0.0207187"
       d="m 14.06632,24.982148 c -0.272098,-1.460322 -0.455875,-2.96005 -0.642276,-4.433819 -0.368907,0.06348 -0.725469,0.228302 -1.098101,0.298125 -1.13796,0.213216 -2.4371309,0.232502 -3.5014756,-0.28275 -2.460396,-1.191124 -2.802232,-5.059298 -0.662993,-6.73526 1.4550917,-1.139991 3.4124986,-0.835089 5.0553786,-0.386656 L 14.06632,9.0079766 c -1.644388,-0.535076 -3.485203,-0.708291 -5.2004066,-0.50317 -2.143925,0.256399 -4.171953,0.933443 -5.780548,2.4318554 -1.925908,1.794036 -2.68475001,4.475938 -2.50881701,7.04254 0.102489,1.495646 0.51074901,3.000349 1.36981401,4.247347 0.260586,0.378264 0.55436,0.760982 0.890402,1.075513 1.993058,1.86558 4.598537,2.42911 7.2515546,2.364115 1.352731,-0.03313 2.714678,-0.165735 3.978001,-0.684029 M 15.454479,8.8007876 c 0.03552,0.406607 0.283881,0.858569 0.420751,1.2431244 l 0.973784,2.734874 2.98351,8.391106 c 0.363709,1.021954 0.718294,2.047532 1.090613,3.06638 0.09811,0.268411 0.185973,0.54078 0.287227,0.808031 0.03007,0.0793 0.05184,0.236735 0.12204,0.289483 0.07983,0.05977 0.283431,0.0213 0.379154,0.0213 h 0.994499 3.397878 0.911629 c 0.10054,0 0.27908,0.0339 0.367134,-0.0213 0.08224,-0.05155 0.113371,-0.223265 0.143795,-0.310201 0.09219,-0.263233 0.187513,-0.526049 0.285097,-0.787313 0.391174,-1.045925 0.769705,-2.097652 1.145124,-3.149253 1.00093,-2.802711 2.03085,-5.596102 3.053124,-8.391105 0.305387,-0.835097 0.606228,-1.671883 0.911615,-2.506978 0.165756,-0.4531424 0.38745,-0.9181504 0.496223,-1.3881484 H 28.61092 27.450667 c -0.0938,0 -0.326938,-0.04303 -0.384744,0.04801 -0.119348,0.187837 -0.129505,0.523415 -0.182328,0.739294 -0.152271,0.6195174 -0.29794,1.2419414 -0.436125,1.8646884 -0.421007,1.895601 -0.936489,3.772577 -1.31731,5.676945 -0.131974,0.659851 -0.261257,1.322436 -0.354909,1.989001 -0.0214,0.152191 -0.04686,0.304088 -0.0715,0.455814 -0.0069,0.04164 -0.0092,0.140733 -0.07092,0.140733 -0.06073,0 -0.06698,-0.09899 -0.07438,-0.140733 -0.02648,-0.151702 -0.05032,-0.303904 -0.07588,-0.455814 -0.110828,-0.664928 -0.226463,-1.331285 -0.375017,-1.989001 -0.434474,-1.92285 -0.946843,-3.826722 -1.425041,-5.739108 -0.146888,-0.587501 -0.29855,-1.173661 -0.44545,-1.7610914 -0.05679,-0.227639 -0.0775,-0.582954 -0.203047,-0.780728 -0.05923,-0.09323 -0.308915,-0.04801 -0.40546,-0.04801 h -1.20169 z"
       id="path117" />
  </g>
</svg>
