<?xml version="1.0" encoding="UTF-8" standalone="no"?>
<!-- Generator: Adobe Illustrator 19.0.0, SVG Export Plug-In . SVG Version: 6.00 Build 0)  -->

<svg
   version="1.1"
   id="Layer_1"
   x="0px"
   y="0px"
   viewBox="0 0 300.003 300.003"
   style="enable-background:new 0 0 300.003 300.003;"
   xml:space="preserve"
   sodipodi:docname="cancel.svg"
   inkscape:version="1.2-alpha (0bd5040e, 2022-02-05)"
   xmlns:inkscape="http://www.inkscape.org/namespaces/inkscape"
   xmlns:sodipodi="http://sodipodi.sourceforge.net/DTD/sodipodi-0.dtd"
   xmlns="http://www.w3.org/2000/svg"
   xmlns:svg="http://www.w3.org/2000/svg"><defs
   id="defs5343" /><sodipodi:namedview
   id="namedview5341"
   pagecolor="#ffffff"
   bordercolor="#000000"
   borderopacity="0.25"
   inkscape:pageshadow="2"
   inkscape:pageopacity="0.0"
   inkscape:pagecheckerboard="0"
   inkscape:blackoutopacity="0.0"
   showgrid="false"
   inkscape:zoom="2.5733076"
   inkscape:cx="150.0015"
   inkscape:cy="150.0015"
   inkscape:window-width="1920"
   inkscape:window-height="950"
   inkscape:window-x="0"
   inkscape:window-y="25"
   inkscape:window-maximized="1"
   inkscape:current-layer="Layer_1" />
<g
   id="g5308"
   style="fill:#00a2ed;fill-opacity:1">
	<g
   id="g5306"
   style="fill:#00a2ed;fill-opacity:1">
		<path
   d="M150,0C67.159,0,0.001,67.159,0.001,150c0,82.838,67.157,150.003,149.997,150.003S300.002,232.838,300.002,150    C300.002,67.159,232.839,0,150,0z M206.584,207.171c-5.989,5.984-15.691,5.984-21.675,0l-34.132-34.132l-35.686,35.686    c-5.986,5.984-15.689,5.984-21.672,0c-5.989-5.991-5.989-15.691,0-21.68l35.683-35.683L95.878,118.14    c-5.984-5.991-5.984-15.691,0-21.678c5.986-5.986,15.691-5.986,21.678,0l33.222,33.222l31.671-31.673    c5.986-5.984,15.694-5.986,21.675,0c5.989,5.991,5.989,15.697,0,21.678l-31.668,31.671l34.13,34.132    C212.57,191.475,212.573,201.183,206.584,207.171z"
   id="path5304"
   style="fill:#00a2ed;fill-opacity:1" />
	</g>
</g>
<g
   id="g5310">
</g>
<g
   id="g5312">
</g>
<g
   id="g5314">
</g>
<g
   id="g5316">
</g>
<g
   id="g5318">
</g>
<g
   id="g5320">
</g>
<g
   id="g5322">
</g>
<g
   id="g5324">
</g>
<g
   id="g5326">
</g>
<g
   id="g5328">
</g>
<g
   id="g5330">
</g>
<g
   id="g5332">
</g>
<g
   id="g5334">
</g>
<g
   id="g5336">
</g>
<g
   id="g5338">
</g>
<path
   style="fill:#ffffff;fill-opacity:1;stroke-width:0.388605"
   d="m 99.982621,212.39173 c -7.079254,-2.21244 -11.916262,-9.80562 -10.640972,-16.7043 0.961746,-5.20256 0.848727,-5.06692 21.228841,-25.47916 l 18.81836,-18.84802 -17.61974,-17.68084 C 91.786354,113.62736 92.090511,114.01542 91.784331,108.18193 c -0.2023,-3.85432 0.463221,-6.34156 2.500872,-9.346509 2.901213,-4.278447 7.179807,-6.485952 12.581147,-6.491137 2.7914,-0.0027 3.69448,0.169114 5.82908,1.108877 2.34162,1.030907 3.82331,2.403827 20.30643,18.815759 l 17.78051,17.70372 16.80533,-16.7771 c 15.0524,-15.027112 17.06427,-16.898805 19.28775,-17.943864 3.09453,-1.454461 5.94594,-1.837486 9.08361,-1.220186 4.84627,0.953444 8.86858,4.034936 11.03917,8.45709 0.99513,2.0274 1.09971,2.62846 1.09971,6.3208 0,6.70159 0.62074,5.86749 -19.08678,25.64722 l -16.8419,16.90362 18.04054,18.07083 c 19.53216,19.56496 19.49323,19.51793 20.45155,24.70196 1.14228,6.17917 -2.74177,13.19304 -8.85596,15.99221 -4.08793,1.87152 -9.78894,1.55584 -13.72061,-0.75975 -0.74806,-0.44058 -9.44801,-8.86021 -19.33321,-18.71029 l -17.97309,-17.90924 -18.75007,18.68661 c -10.31254,10.27763 -19.36213,19.0458 -20.11019,19.48482 -3.26085,1.91369 -8.47065,2.55723 -11.935599,1.47436 z"
   id="path7794" /></svg>
