<?xml version="1.0" encoding="UTF-8" standalone="no"?>
<!-- Generator: Adobe Illustrator 19.0.0, SVG Export Plug-In . SVG Version: 6.00 Build 0)  -->

<svg
   version="1.1"
   id="Layer_1"
   x="0px"
   y="0px"
   viewBox="0 0 300.003 300.003"
   style="enable-background:new 0 0 300.003 300.003;"
   xml:space="preserve"
   sodipodi:docname="left-arrow-dark.svg"
   inkscape:version="1.2-alpha (0bd5040e, 2022-02-05)"
   xmlns:inkscape="http://www.inkscape.org/namespaces/inkscape"
   xmlns:sodipodi="http://sodipodi.sourceforge.net/DTD/sodipodi-0.dtd"
   xmlns="http://www.w3.org/2000/svg"
   xmlns:svg="http://www.w3.org/2000/svg"><defs
   id="defs259" /><sodipodi:namedview
   id="namedview257"
   pagecolor="#ffffff"
   bordercolor="#000000"
   borderopacity="0.25"
   inkscape:pageshadow="2"
   inkscape:pageopacity="0.0"
   inkscape:pagecheckerboard="0"
   inkscape:blackoutopacity="0.0"
   showgrid="false"
   inkscape:zoom="2.6666401"
   inkscape:cx="147.93897"
   inkscape:cy="180.3768"
   inkscape:window-width="1915"
   inkscape:window-height="950"
   inkscape:window-x="0"
   inkscape:window-y="25"
   inkscape:window-maximized="0"
   inkscape:current-layer="Layer_1" />
<g
   id="g224"
   transform="rotate(-90,150.0015,150.0015)"
   style="fill:#00a2ed;fill-opacity:1">
	<g
   id="g222"
   style="fill:#00a2ed;fill-opacity:1">
		<path
   d="M 150,0 C 67.159,0 0.001,67.159 0.001,150 c 0,82.838 67.157,150.003 149.997,150.003 82.84,0 150.004,-67.165 150.004,-150.003 C 300.002,67.159 232.842,0 150,0 Z m 67.685,189.794 c -5.47,5.467 -14.338,5.47 -19.81,0 l -48.26,-48.27 -48.522,48.516 c -5.467,5.467 -14.338,5.47 -19.81,0 -2.731,-2.739 -4.098,-6.321 -4.098,-9.905 0,-3.584 1.367,-7.166 4.103,-9.897 l 56.292,-56.297 c 0.539,-0.838 1.157,-1.637 1.888,-2.368 2.796,-2.796 6.476,-4.142 10.146,-4.077 3.662,-0.062 7.348,1.281 10.141,4.08 0.734,0.729 1.349,1.528 1.886,2.365 l 56.043,56.043 c 5.468,5.47 5.472,14.338 0.001,19.81 z"
   id="path220"
   style="fill:#00a2ed;fill-opacity:1" />
	</g>
</g>
<g
   id="g226">
</g>
<g
   id="g228">
</g>
<g
   id="g230">
</g>
<g
   id="g232">
</g>
<g
   id="g234">
</g>
<g
   id="g236">
</g>
<g
   id="g238">
</g>
<g
   id="g240">
</g>
<g
   id="g242">
</g>
<g
   id="g244">
</g>
<g
   id="g246">
</g>
<g
   id="g248">
</g>
<g
   id="g250">
</g>
<g
   id="g252">
</g>
<g
   id="g254">
</g>
<path
   style="fill:#ffffff;fill-opacity:1;stroke-width:0.375004"
   d="m 176.90057,222.17081 c -1.08692,-0.29262 -2.52131,-0.80516 -3.18753,-1.13897 -0.66623,-0.33381 -14.38977,-13.70998 -30.49676,-29.72483 -16.10699,-16.01484 -30.16244,-29.91408 -31.23432,-30.88719 -1.21345,-1.10162 -2.33229,-2.58751 -2.96489,-3.93754 -0.90248,-1.926 -1.01599,-2.60816 -1.01599,-6.10578 0,-3.5623 0.10102,-4.14326 1.06004,-6.09627 0.58302,-1.1873 1.83363,-2.87481 2.77912,-3.75004 0.9455,-0.87522 14.98112,-14.76959 31.19028,-30.87638 25.83135,-25.668206 29.7157,-29.386847 31.45091,-30.109177 7.10389,-2.957197 14.88018,0.230383 18.18992,7.456234 0.58796,1.283639 0.77985,2.495272 0.80177,5.06255 0.0253,2.962343 -0.10546,3.673089 -1.06924,5.812558 -1.02336,2.271735 -2.79525,4.140075 -26.05108,27.469025 l -24.95305,25.0315 24.97802,25.0315 c 26.58091,26.63783 26.35254,26.3787 27.30369,30.98253 1.48555,7.19057 -3.68203,14.56436 -11.19958,15.98103 -2.538,0.47828 -3.1395,0.45665 -5.58131,-0.20075 z"
   id="path11470" /><path
   style="fill:#ffffff;fill-opacity:1;stroke-width:0.375004"
   d="m 176.81719,222.14948 c -1.13277,-0.30436 -2.69,-0.92608 -3.46051,-1.38159 -0.77051,-0.45551 -10.72818,-10.11089 -22.12815,-21.45641 -11.39998,-11.34551 -25.35428,-25.18315 -31.00957,-30.7503 -12.23409,-12.04343 -12.21788,-12.01932 -12.21788,-18.18468 0,-5.53361 0.68339,-6.89363 6.04221,-12.02461 2.24559,-2.15012 16.09862,-15.89151 30.78451,-30.53644 29.48692,-29.404661 28.84719,-28.851274 33.88333,-29.310456 11.17378,-1.018796 18.77657,11.411757 12.84974,21.00932 -0.52617,0.852056 -12.02882,12.643466 -25.56144,26.203146 l -24.60476,24.65395 24.98055,25.03404 c 26.58363,26.64055 26.35509,26.38122 27.30624,30.98508 1.48555,7.19057 -3.68203,14.56436 -11.19958,15.98103 -2.55058,0.48065 -3.13442,0.45777 -5.66469,-0.22208 z"
   id="path13658" /><path
   style="fill:#000000;stroke-width:0.375004"
   d="m 176.81719,222.17172 c -1.13277,-0.31659 -2.68449,-0.94832 -3.44825,-1.40383 -1.02896,-0.61367 -50.58895,-49.25314 -61.95301,-60.8023 -0.80311,-0.81618 -1.89999,-2.42168 -2.43752,-3.56777 -0.85875,-1.83095 -0.97733,-2.56154 -0.97733,-6.02132 0,-5.9009 0.40144,-6.582 8.63199,-14.64504 3.67323,-3.59847 17.53674,-17.34278 30.80781,-30.54291 27.7954,-27.646831 26.55845,-26.634676 32.52311,-26.612684 2.98437,0.011 3.69429,0.148975 5.65468,1.098976 2.8479,1.380083 5.37271,3.900214 6.78089,6.768305 0.98854,2.013405 1.10128,2.613086 1.09182,5.807772 -0.0185,6.23968 1.46307,4.432104 -27.12482,33.094081 l -24.96681,25.0315 24.97802,25.0315 c 26.7263,26.78354 26.39456,26.40544 27.32707,31.1453 1.85056,9.40623 -7.65621,18.1985 -16.88765,15.61842 z"
   id="path4450" /></svg>
