<?xml version="1.0" encoding="UTF-8" standalone="no"?>
<!-- Generator: Adobe Illustrator 19.0.0, SVG Export Plug-In . SVG Version: 6.00 Build 0)  -->

<svg
   version="1.1"
   id="Layer_1"
   x="0px"
   y="0px"
   viewBox="0 0 300.003 300.003"
   style="enable-background:new 0 0 300.003 300.003;"
   xml:space="preserve"
   sodipodi:docname="right-arrow-dark.svg"
   inkscape:version="1.2-alpha (0bd5040e, 2022-02-05)"
   xmlns:inkscape="http://www.inkscape.org/namespaces/inkscape"
   xmlns:sodipodi="http://sodipodi.sourceforge.net/DTD/sodipodi-0.dtd"
   xmlns="http://www.w3.org/2000/svg"
   xmlns:svg="http://www.w3.org/2000/svg"><defs
   id="defs259" /><sodipodi:namedview
   id="namedview257"
   pagecolor="#ffffff"
   bordercolor="#000000"
   borderopacity="0.25"
   inkscape:pageshadow="2"
   inkscape:pageopacity="0.0"
   inkscape:pagecheckerboard="0"
   inkscape:blackoutopacity="0.0"
   showgrid="false"
   inkscape:zoom="2.6666401"
   inkscape:cx="147.75147"
   inkscape:cy="150.00149"
   inkscape:window-width="1390"
   inkscape:window-height="950"
   inkscape:window-x="0"
   inkscape:window-y="25"
   inkscape:window-maximized="0"
   inkscape:current-layer="Layer_1" />
<g
   id="g224"
   transform="rotate(90,150.0015,150.0015)"
   style="fill:#00a2ed;fill-opacity:1">
	<g
   id="g222"
   style="fill:#00a2ed;fill-opacity:1">
		<path
   d="M 150,0 C 67.159,0 0.001,67.159 0.001,150 c 0,82.838 67.157,150.003 149.997,150.003 82.84,0 150.004,-67.165 150.004,-150.003 C 300.002,67.159 232.842,0 150,0 Z m 67.685,189.794 c -5.47,5.467 -14.338,5.47 -19.81,0 l -48.26,-48.27 -48.522,48.516 c -5.467,5.467 -14.338,5.47 -19.81,0 -2.731,-2.739 -4.098,-6.321 -4.098,-9.905 0,-3.584 1.367,-7.166 4.103,-9.897 l 56.292,-56.297 c 0.539,-0.838 1.157,-1.637 1.888,-2.368 2.796,-2.796 6.476,-4.142 10.146,-4.077 3.662,-0.062 7.348,1.281 10.141,4.08 0.734,0.729 1.349,1.528 1.886,2.365 l 56.043,56.043 c 5.468,5.47 5.472,14.338 0.001,19.81 z"
   id="path220"
   style="fill:#00a2ed;fill-opacity:1" />
	</g>
</g>
<g
   id="g226">
</g>
<g
   id="g228">
</g>
<g
   id="g230">
</g>
<g
   id="g232">
</g>
<g
   id="g234">
</g>
<g
   id="g236">
</g>
<g
   id="g238">
</g>
<g
   id="g240">
</g>
<g
   id="g242">
</g>
<g
   id="g244">
</g>
<g
   id="g246">
</g>
<g
   id="g248">
</g>
<g
   id="g250">
</g>
<g
   id="g252">
</g>
<g
   id="g254">
</g>
<path
   style="fill:#ffffff;stroke-width:0.375004"
   d="m 117.08909,221.24272 c -3.37354,-0.85103 -6.38984,-2.93736 -8.28369,-5.72971 -2.83834,-4.18491 -3.19493,-8.97823 -1.01526,-13.64704 1.11679,-2.39214 2.74685,-4.10892 26.10055,-27.48923 l 24.90937,-24.93775 -25.44948,-25.50026 C 109.09623,99.635999 107.86109,98.332817 107.04901,96.188458 c -1.64997,-4.35687 -0.99495,-9.337634 1.7135,-13.029268 3.71218,-5.059742 10.26883,-7.011915 16.11373,-4.797688 2.14749,0.813532 3.59251,2.187638 31.7085,30.152378 16.20217,16.11499 30.31793,30.09181 31.36837,31.05957 1.09665,1.01034 2.36528,2.68698 2.97935,3.93754 0.96975,1.97491 1.06945,2.54505 1.06945,6.1155 0,3.53254 -0.10564,4.15265 -1.02707,6.02887 -0.56489,1.15024 -1.82662,2.83775 -2.80385,3.75004 -0.97724,0.91229 -15.0277,14.83698 -31.22325,30.94377 -25.96033,25.81804 -29.68345,29.38376 -31.44814,30.11863 -2.26358,0.94263 -6.27911,1.31261 -8.41051,0.77492 z"
   id="path14029" /><path
   style="fill:#000000;stroke-width:0.375004"
   d="m 116.59967,221.11444 c -6.71329,-1.8101 -11.13277,-8.56865 -10.04659,-15.36386 0.7267,-4.54628 0.18674,-3.93034 27.0931,-30.90511 l 25.15507,-25.21902 -25.34137,-25.40648 C 104.61084,95.29681 106.32515,97.387039 106.31776,91.125908 c -0.004,-3.149881 0.11776,-3.810892 1.04869,-5.706649 2.7318,-5.56303 8.92015,-8.89318 14.58131,-7.846659 4.63923,0.857608 3.62726,-0.04792 36.67882,32.82109 35.4895,35.2935 33.5733,33.05473 33.548,39.19551 -0.0256,6.20944 2.19703,3.59616 -32.50355,38.21657 -16.80927,16.77043 -31.20864,30.9309 -31.9986,31.46769 -3.06706,2.08412 -7.46134,2.81473 -11.07276,1.84098 z"
   id="path2908" /></svg>
